<?xml version="1.0" standalone="no"?>
<!DOCTYPE svg PUBLIC "-//W3C//DTD SVG 1.1//EN" "http://www.w3.org/Graphics/SVG/1.1/DTD/svg11.dtd" >
<svg xmlns="http://www.w3.org/2000/svg">
<metadata></metadata>
<defs>
<font id="gotham_condensedmedium" horiz-adv-x="692" >
<font-face units-per-em="2048" ascent="1638" descent="-410" />
<missing-glyph horiz-adv-x="319" />
<glyph unicode="&#xfb01;" horiz-adv-x="808" d="M30 902v157h78v89q0 130 64.5 194t183.5 64q37 0 81 -7v-161q-23 4 -37 4q-102 0 -102 -120v-63h135v-157h-135v-902h-190v902h-78zM534 1196v207h195v-207h-195zM536 0v1059h190v-1059h-190z" />
<glyph unicode="&#xfb02;" horiz-adv-x="808" d="M30 902v157h78v89q0 130 64.5 194t183.5 64q37 0 81 -7v-161q-23 4 -37 4q-102 0 -102 -120v-63h135v-157h-135v-902h-190v902h-78zM536 0v1403h190v-1403h-190z" />
<glyph unicode="&#xfb03;" horiz-adv-x="1251" d="M30 902v157h78v89q0 130 64.5 194t183.5 64q37 0 81 -7v-161q-23 4 -37 4q-102 0 -102 -120v-63h133v-157h-133v-902h-190v902h-78zM481 902v157h75v89q0 130 64.5 194t183.5 64q41 0 80 -7v-161q-24 4 -36 4q-103 0 -103 -120v-63h137v-157h-137v-902h-189v902h-75z M978 1196v207h194v-207h-194zM980 0v1059h188v-1059h-188z" />
<glyph unicode="&#xfb04;" horiz-adv-x="1251" d="M30 902v157h78v89q0 130 64.5 194t183.5 64q37 0 81 -7v-161q-23 4 -37 4q-102 0 -102 -120v-63h133v-157h-133v-902h-190v902h-78zM481 902v157h75v89q0 130 64.5 194t183.5 64q41 0 80 -7v-161q-24 4 -36 4q-103 0 -103 -120v-63h137v-157h-137v-902h-189v902h-75z M980 0v1403h188v-1403h-188z" />
<glyph horiz-adv-x="2048" />
<glyph horiz-adv-x="2048" />
<glyph unicode="&#xd;" horiz-adv-x="2048" />
<glyph unicode=" "  horiz-adv-x="319" />
<glyph unicode="&#x09;" horiz-adv-x="319" />
<glyph unicode="&#xa0;" horiz-adv-x="319" />
<glyph unicode="!" horiz-adv-x="422" d="M95 1321v70h233v-70l-68 -910h-97zM97 0v242h229v-242h-229z" />
<glyph unicode="&#x22;" horiz-adv-x="616" d="M89 802v589h197v-18l-125 -571h-72zM381 802v589h197v-18l-125 -571h-72z" />
<glyph unicode="#" horiz-adv-x="754" d="M30 510h127l32 378h-121v175h135l28 328h127l-28 -328h155l27 328h127l-27 -328h114v-175h-130l-30 -378h122v-174h-136l-27 -336h-131l29 336h-152l-29 -336h-129l28 336h-109zM284 510h153l32 378h-153z" />
<glyph unicode="$" d="M61 1051v3q0 123 61.5 209.5t161.5 116.5v154h139v-141q85 -5 171 -49v-205q-61 36 -104 52.5t-88 16.5q-62 0 -103 -39.5t-41 -103.5v-4q0 -55 26 -97.5t127 -163.5q74 -87 115 -142t70 -109.5t38.5 -100.5t9.5 -107v-3q0 -120 -61 -206.5t-160 -119.5v-219h-139v205 q-105 5 -210 61v205q138 -82 224 -82q66 0 107.5 38.5t41.5 107.5v4q0 59 -29 112t-124 168q-52 63 -77.5 94t-58 74.5t-46 69.5t-28 61.5t-19 67.5t-4.5 72z" />
<glyph unicode="%" horiz-adv-x="1090" d="M51 1025v36q0 105 28 182.5t76.5 118.5t112.5 41q96 0 156.5 -92.5t60.5 -249.5v-36q0 -157 -60.5 -249t-157 -92t-156.5 92t-60 249zM165 0l641 1391h121l-641 -1391h-121zM187 1027q0 -208 81 -208t81 208v32q0 209 -81 209t-81 -209v-32zM606 330v36q0 157 60 249 t156.5 92t156.5 -92t60 -249v-36q0 -157 -60 -249.5t-156.5 -92.5t-156.5 92.5t-60 249.5zM741 332q0 -209 81.5 -209t81.5 209v32q0 208 -81.5 208t-81.5 -208v-32z" />
<glyph unicode="&#x26;" horiz-adv-x="847" d="M34 345v13q0 232 216 421q-43 72 -68.5 125t-40 104t-14.5 99v11q0 122 76 206t197 84q118 0 190 -81t72 -203v-13q0 -110 -51 -199.5t-152 -176.5l155 -290q23 88 40 222l152 -25q-24 -209 -89 -366l121 -210l-143 -88l-79 149q-54 -71 -116 -107.5t-151 -36.5 q-133 0 -224 103t-91 259zM222 358q0 -90 41.5 -147.5t108.5 -57.5q50 0 88 27t71 80l-199 379q-54 -58 -82 -128t-28 -139v-14zM296 1109q0 -47 19.5 -101t63.5 -140q114 100 114 239v11q0 58 -26.5 94.5t-70.5 36.5q-45 0 -72.5 -36t-27.5 -91v-13z" />
<glyph unicode="'" horiz-adv-x="319" d="M89 802v589h197v-18l-125 -571h-72z" />
<glyph unicode="(" horiz-adv-x="555" d="M80 574q0 155 26 289t77.5 244t134 190.5t190.5 122.5v-143q-123 -80 -184.5 -261t-61.5 -442q0 -262 61.5 -444t184.5 -261v-144q-108 42 -190.5 122t-134 191t-77.5 245.5t-26 290.5z" />
<glyph unicode=")" horiz-adv-x="555" d="M46 -131q124 79 186 260.5t62 444.5q0 261 -62 442t-186 261v143q109 -42 192 -122.5t135 -190.5t78 -244t26 -289q0 -156 -26 -290.5t-78 -245.5t-135 -191t-192 -122v144z" />
<glyph unicode="*" horiz-adv-x="580" d="M34 1018l182 81l-182 81l67 115l153 -129l-30 227h132l-30 -227l153 129l67 -115l-182 -81l182 -81l-67 -116l-153 129l30 -227h-132l30 227l-153 -129z" />
<glyph unicode="+" horiz-adv-x="730" d="M48 608v183h230v244h177v-244h229v-183h-229v-244h-177v244h-230z" />
<glyph unicode="," horiz-adv-x="392" d="M38 -203q45 12 76.5 33.5t47 49.5t20.5 57.5t2 62.5h-103v242h228v-200q0 -278 -252 -328z" />
<glyph unicode="-" horiz-adv-x="627" d="M78 512v191h470v-191h-470z" />
<glyph unicode="." horiz-adv-x="392" d="M81 0v242h228v-242h-228z" />
<glyph unicode="/" horiz-adv-x="583" d="M-14 -195l433 1721h161l-434 -1721h-160z" />
<glyph unicode="0" horiz-adv-x="768" d="M57 663v63q0 179 22 310.5t64.5 213t102.5 120t139 38.5q328 0 328 -680v-63q0 -682 -328 -682q-79 0 -139 38.5t-102.5 119.5t-64.5 212t-22 310zM250 665q0 -145 10 -246t29 -156t42 -78.5t54 -23.5q30 0 53 23t42 77.5t29 156.5t10 247v61q0 145 -10 246.5t-29 156 t-42 78t-53 23.5q-31 0 -54 -23t-42 -78t-29 -156t-10 -247v-61z" />
<glyph unicode="1" horiz-adv-x="474" d="M34 1122v201l195 74h144v-1397h-196v1180z" />
<glyph unicode="2" horiz-adv-x="641" d="M44 0v161l265 580q52 116 74 187.5t22 128.5q0 69 -40 111t-105 42q-90 0 -186 -60v192q116 59 224 59q135 0 217.5 -82.5t82.5 -226.5v-9q0 -56 -12.5 -112.5t-35 -115t-65.5 -154.5l-229 -506h340v-195h-552z" />
<glyph unicode="3" horiz-adv-x="641" d="M34 24v186q45 -19 84 -28t92 -9q83 0 138.5 64.5t55.5 173.5v14q0 220 -258 238v129l239 406h-339v193h544v-169l-250 -418q258 -77 258 -365v-18q0 -98 -28.5 -180t-78 -137t-116.5 -85.5t-144 -30.5q-108 0 -197 36z" />
<glyph unicode="4" horiz-adv-x="740" d="M32 276v149l381 972h189v-954h113v-167h-113v-276h-183v276h-387zM193 443h226v598z" />
<glyph unicode="5" horiz-adv-x="656" d="M57 739l34 652h474v-187h-324l-21 -344q48 16 102 16q59 0 110 -23t93 -69.5t66.5 -128t24.5 -188.5v-16q0 -213 -103.5 -338t-270.5 -125q-88 0 -178 36v190q78 -39 160 -39q91 0 145 75.5t54 202.5v12q0 62 -12 107.5t-34 72t-50 38.5t-63 12q-48 0 -107 -22z" />
<glyph unicode="6" horiz-adv-x="722" d="M57 614v48q0 139 13 251t37 192.5t57 138t76.5 91.5t91 50t104.5 16q73 0 154 -30v-189q-68 40 -139 40q-198 0 -207 -407q40 34 79 52.5t94 18.5q40 0 77 -13t71 -44t59 -76.5t40 -116.5t15 -159v-30q0 -209 -87.5 -337.5t-221.5 -128.5q-76 0 -132 34t-97.5 107.5 t-62.5 197t-21 294.5zM246 514q0 -359 126 -359q59 0 92 74.5t33 209.5v31q0 66 -10.5 115.5t-28.5 78.5t-41 43t-51 14q-62 0 -120 -58v-149z" />
<glyph unicode="7" horiz-adv-x="614" d="M40 1194v197h523v-144l-267 -1247h-190l267 1194h-333z" />
<glyph unicode="8" horiz-adv-x="712" d="M44 375v14q0 84 24 156t60.5 118t81.5 74q-69 42 -107.5 121t-38.5 185v11q0 66 15 122.5t42 98.5t63.5 72.5t80 45.5t91.5 15q40 0 77 -10.5t69.5 -31t59 -51.5t46 -70t30 -87.5t10.5 -103.5v-11q0 -106 -38 -185t-108 -121q71 -44 119 -134t48 -214v-14 q0 -179 -87 -285.5t-226 -106.5q-138 0 -225 106.5t-87 285.5zM231 385q0 -82 16 -138.5t43.5 -82t65.5 -25.5q58 0 92.5 62t34.5 184v13q0 81 -17 138t-45 83.5t-65 26.5q-55 0 -90 -64t-35 -184v-13zM246 1027q0 -105 29.5 -167t80.5 -62t81 62t30 167v10q0 109 -30 162.5 t-81 53.5q-49 0 -79.5 -54t-30.5 -162v-10z" />
<glyph unicode="9" horiz-adv-x="722" d="M44 910v22q0 218 87 348t223 130q75 0 131 -34t97.5 -107.5t62 -197t20.5 -294.5v-48q0 -166 -18.5 -293.5t-51 -211t-80.5 -136.5t-103.5 -75.5t-123.5 -22.5q-81 0 -176 36v188q82 -45 161 -45q196 0 204 392q-79 -72 -171 -72q-35 0 -66 9.5t-61 29.5t-54.5 53.5 t-42.5 79t-28 109t-10 140.5zM226 916q0 -138 35.5 -200t96.5 -62q59 0 119 57v165q0 98 -9.5 169.5t-27.5 112t-39.5 59.5t-49.5 19q-60 0 -92.5 -76t-32.5 -220v-24z" />
<glyph unicode=":" horiz-adv-x="412" d="M91 0v242h229v-242h-229zM91 817v242h229v-242h-229z" />
<glyph unicode=";" horiz-adv-x="412" d="M48 -203q45 12 76.5 33.5t47 49.5t21 57.5t2.5 62.5h-104v242h229v-200q0 -278 -252 -328zM91 817v242h229v-242h-229z" />
<glyph unicode="&#x3c;" horiz-adv-x="730" d="M64 612v175l590 358v-227l-392 -217l392 -216v-229z" />
<glyph unicode="=" horiz-adv-x="730" d="M53 429v191h624v-191h-624zM53 779v190h624v-190h-624z" />
<glyph unicode="&#x3e;" horiz-adv-x="730" d="M78 256v225l389 216l-389 217v231l589 -358v-175z" />
<glyph unicode="?" horiz-adv-x="625" d="M42 1170v179q101 52 210 52q98 0 175.5 -45t120 -124.5t42.5 -179.5v-15q0 -255 -243 -368l-21 -258h-127l-21 348l11 10q209 74 209 260v4q0 83 -52 134.5t-130 51.5q-87 0 -174 -49zM155 0v242h226v-242h-226z" />
<glyph unicode="@" horiz-adv-x="1261" d="M57 425q1 95 12.5 188t33.5 179.5t55 166.5t74.5 148.5t94 124.5t111.5 95.5t129.5 61t145.5 21.5q110 0 202.5 -48.5t154.5 -131.5t97 -194.5t35 -237.5t-22 -243t-62.5 -210.5t-103.5 -149.5t-138 -56q-85 0 -130 49t-49 128q-92 -175 -208 -175q-73 0 -121 64t-48 178 q0 120 24.5 234.5t65 200t96.5 137.5t116 52q61 0 97.5 -41t49.5 -106l23 127l158 -28l-92 -506q-12 -71 -12 -133q0 -96 64 -96q58 0 107.5 85t77 218t27.5 277q0 109 -27.5 205t-79 169.5t-131 116t-177.5 42.5q-87 0 -166 -36.5t-141 -101t-112.5 -151.5t-83.5 -189 t-51 -213.5t-18 -224.5q-1 -149 33 -267t95.5 -194.5t147 -116.5t188.5 -40q159 0 293 80l37 -61q-83 -50 -159.5 -71.5t-177.5 -21.5q-114 0 -210.5 44.5t-169.5 129t-114 218.5t-41 304zM483 394q0 -116 71 -116q42 0 84.5 64.5t66.5 165.5q28 118 28 215q0 62 -21 95 t-56 33q-42 0 -80 -58.5t-62 -159.5q-31 -121 -31 -239z" />
<glyph unicode="A" horiz-adv-x="798" d="M17 0l277 1395h208l277 -1395h-197l-55 309h-263l-55 -309h-192zM294 487h203l-101 558z" />
<glyph unicode="B" horiz-adv-x="770" d="M83 0v1391h201q89 0 165 -21.5t136 -63.5t94 -110.5t34 -156.5v-8q0 -232 -216 -322q234 -82 234 -318v-14q0 -118 -57.5 -204t-158.5 -129.5t-235 -43.5h-197zM280 180h20q107 0 170.5 55.5t63.5 155.5v9q0 68 -28 117t-80 74t-122 25h-24v-436zM280 787h20 q103 0 162 56.5t59 159.5v4q0 98 -57.5 150.5t-156.5 52.5h-27v-423z" />
<glyph unicode="C" horiz-adv-x="663" d="M55 673v44q0 101 10.5 189t30 157t47.5 125t61.5 95.5t73.5 66t83 39t90 12.5q49 0 82 -7.5t71 -26.5v-203q-75 46 -135 46q-48 0 -85.5 -26.5t-67.5 -83t-46 -153t-16 -228.5v-48q0 -491 216 -491q66 0 138 44v-192q-68 -42 -169 -42q-66 0 -123 25t-105.5 78.5 t-82.5 132.5t-53.5 193t-19.5 254z" />
<glyph unicode="D" horiz-adv-x="819" d="M83 0v1391h209q224 0 348 -172t124 -502v-44q0 -330 -124 -501.5t-348 -171.5h-209zM280 178h29q56 0 101 27.5t81 84t55.5 154.5t19.5 229v44q0 131 -20 229t-56 154.5t-81.5 84t-101.5 27.5h-27v-1034z" />
<glyph unicode="E" horiz-adv-x="650" d="M83 0v1391h515v-185h-318v-414h285v-184h-285v-424h324v-184h-521z" />
<glyph unicode="F" horiz-adv-x="613" d="M83 0v1391h491v-185h-294v-423h260v-185h-260v-598h-197z" />
<glyph unicode="G" horiz-adv-x="796" d="M55 673v44q0 166 34 297t95 215t143 128t179 44q101 0 182 -40v-207q-98 59 -176 59q-117 0 -187.5 -124t-70.5 -363v-61q0 -109 13.5 -195t36.5 -142t55 -92.5t66 -51.5t74 -15q19 0 45 8v413h-146v174h325v-718q-33 -15 -60 -25.5t-55 -18t-57 -11t-60 -3.5 q-73 0 -137 25t-119.5 79t-95 133.5t-62 193.5t-22.5 254z" />
<glyph unicode="H" horiz-adv-x="834" d="M83 0v1391h197v-599h276v599h195v-1391h-195v606h-276v-606h-197z" />
<glyph unicode="I" horiz-adv-x="377" d="M91 0v1391h195v-1391h-195z" />
<glyph unicode="J" horiz-adv-x="548" d="M34 8v193q61 -23 112 -23q39 0 67.5 15t45 49t16.5 86v1063h197v-1075q0 -161 -80.5 -244.5t-220.5 -83.5q-65 0 -137 20z" />
<glyph unicode="K" horiz-adv-x="779" d="M83 0v1391h197v-644l253 644h222l-260 -600l274 -791h-217l-201 568l-71 -174v-394h-197z" />
<glyph unicode="L" horiz-adv-x="585" d="M83 0v1391h197v-1207h285v-184h-482z" />
<glyph unicode="M" horiz-adv-x="961" d="M83 0v1391h201l197 -591l196 591h201v-1391h-188v948l-207 -612h-6l-206 612v-948h-188z" />
<glyph unicode="N" horiz-adv-x="845" d="M83 0v1391h188l301 -843v843h190v-1391h-176l-311 874v-874h-192z" />
<glyph unicode="O" horiz-adv-x="825" d="M55 665v61q0 172 26.5 303.5t74 214t112.5 123.5t145 41q165 0 261.5 -171.5t96.5 -510.5v-61q0 -339 -96.5 -510.5t-261 -171.5t-261.5 171.5t-97 510.5zM254 665q0 -258 42.5 -381t116.5 -123t116.5 123t42.5 381v61q0 258 -42.5 381t-116.5 123t-116.5 -123 t-42.5 -381v-61z" />
<glyph unicode="P" horiz-adv-x="752" d="M83 0v1391h203q201 0 318 -117t117 -342v-5q0 -218 -112 -338t-305 -130h-24v-459h-197zM280 639h26q101 3 160 75.5t59 207.5v3q0 142 -57 213.5t-159 71.5h-29v-571z" />
<glyph unicode="Q" horiz-adv-x="825" d="M55 665v61q0 172 26.5 303.5t74 214t112.5 123.5t145 41q165 0 261.5 -171.5t96.5 -510.5v-61q0 -292 -81 -472l123 -121l-104 -106l-97 108q-85 -91 -199 -91q-164 0 -261 171.5t-97 510.5zM254 665q0 -265 42 -384.5t127 -119.5q48 0 76 34l-12.5 13.5t-31 33l-37 39 t-31.5 33.5l-14 14l97 103q82 -90 82 -91q20 113 20 325v61q0 258 -42.5 381t-116.5 123t-116.5 -123t-42.5 -381v-61z" />
<glyph unicode="R" horiz-adv-x="779" d="M83 0v1391h226q94 0 170.5 -26.5t133 -79t87.5 -136t31 -192.5v-13q0 -133 -50 -226t-137 -146l211 -572h-211l-186 508q-4 0 -13 -1t-13 -1h-52v-506h-197zM280 684h34q103 0 161.5 64t58.5 194v12q0 254 -227 254h-27v-524z" />
<glyph unicode="S" horiz-adv-x="648" d="M38 1061v4q0 75 24.5 139t67.5 108t101 68.5t125 24.5q120 0 214 -50v-207q-59 36 -102.5 51.5t-90.5 15.5q-61 0 -101.5 -38t-40.5 -102v-4q0 -58 28 -107t124 -164q139 -165 186 -258t47 -210v-4q0 -75 -25.5 -139.5t-69.5 -108.5t-104 -69t-127 -25q-122 0 -245 63 v207q134 -81 227 -81q66 0 106.5 37t40.5 106v4q0 42 -11.5 77.5t-44.5 85.5t-96 127q-58 69 -91 111.5t-64.5 89t-46 83t-23 77.5t-8.5 88z" />
<glyph unicode="T" horiz-adv-x="627" d="M28 1206v185h570v-185h-187v-1206h-195v1206h-188z" />
<glyph unicode="U" horiz-adv-x="821" d="M80 391v1000h195v-1018q0 -105 36.5 -157.5t99.5 -52.5q32 0 57 12.5t43.5 38t28.5 66t10 93.5v1018h193v-1000q0 -200 -90 -304t-241.5 -104t-241.5 104t-90 304z" />
<glyph unicode="V" horiz-adv-x="758" d="M17 1391h201l165 -1006l165 1006h193l-260 -1397h-203z" />
<glyph unicode="W" horiz-adv-x="1187" d="M22 1391h202l127 -962l153 962h182l150 -962l129 962h197l-218 -1397h-203l-149 942l-149 -942h-201z" />
<glyph unicode="X" horiz-adv-x="756" d="M24 0l236 717l-224 674h208l135 -449l137 449h203l-222 -672l238 -719h-208l-150 491l-151 -491h-202z" />
<glyph unicode="Y" horiz-adv-x="740" d="M4 1391h205l163 -568l166 568h199l-268 -826v-565h-196v565z" />
<glyph unicode="Z" horiz-adv-x="673" d="M49 0v151l362 1057h-345v183h560v-149l-362 -1060h362v-182h-577z" />
<glyph unicode="[" horiz-adv-x="548" d="M133 -258v1649h356v-138h-189v-1374h189v-137h-356z" />
<glyph unicode="\" horiz-adv-x="583" d="M4 1526h159l435 -1721h-161z" />
<glyph unicode="]" horiz-adv-x="548" d="M59 -121h189v1374h-189v138h356v-1649h-356v137z" />
<glyph unicode="^" horiz-adv-x="873" d="M214 1016l146 357h154l144 -357h-129l-93 241l-95 -241h-127z" />
<glyph unicode="_" horiz-adv-x="897" d="M-4 -155h906v-149h-906v149z" />
<glyph unicode="`" horiz-adv-x="993" d="M330 1339l157 83l159 -279h-130z" />
<glyph unicode="a" horiz-adv-x="690" d="M36 298v28q0 166 66 251.5t182 85.5q77 0 152 -39v83q0 91 -42 139t-121 48q-78 0 -184 -50v181q103 46 215 46q153 0 235.5 -90t82.5 -260v-721h-189v125q-64 -142 -183 -142q-94 0 -154 86.5t-60 228.5zM218 314q0 -85 27.5 -129t74.5 -44q50 0 83 43t33 110v191 q-61 27 -104 27q-55 0 -84.5 -44.5t-29.5 -129.5v-24z" />
<glyph unicode="b" horiz-adv-x="758" d="M78 0v1403h188v-499q76 173 197 173q51 0 93 -28.5t76 -87t52.5 -158.5t18.5 -235v-77q0 -133 -19 -233t-52.5 -159t-76 -87.5t-92.5 -28.5q-37 0 -68.5 14t-55.5 40t-40.5 52.5t-32.5 61.5v-151h-188zM264 497q0 -158 36.5 -247t93.5 -89q56 0 88 88t32 250v59 q0 163 -32 251.5t-88 88.5q-37 0 -66.5 -38t-46.5 -115t-17 -182v-66z" />
<glyph unicode="c" horiz-adv-x="563" d="M51 502v50q0 85 12 159t33.5 130.5t51.5 101t67 73t78.5 43t87.5 14.5q48 0 78.5 -6.5t63.5 -23.5v-195q-70 42 -121 42q-33 0 -60.5 -18.5t-50.5 -57.5t-36 -105t-13 -153v-57q0 -88 13 -153.5t36 -104.5t52 -57.5t64 -18.5q52 0 116 47v-188q-71 -41 -146 -41 q-147 0 -236.5 133t-89.5 386z" />
<glyph unicode="d" horiz-adv-x="758" d="M55 491v77q0 77 6.5 143.5t18 118t28.5 92.5t37.5 70t44.5 48t50.5 28t55.5 9q37 0 68 -14.5t55 -41t40 -53t32 -60.5v495h190v-1403h-190v153q-16 -34 -32 -60.5t-40 -53.5t-55 -41.5t-68 -14.5q-52 0 -94 28t-75.5 86.5t-52.5 158.5t-19 235zM244 499q0 -108 15 -184.5 t42 -115t65 -38.5q57 0 93 88.5t36 247.5v66q0 158 -36 246.5t-93 88.5t-89.5 -89t-32.5 -251v-59z" />
<glyph unicode="e" d="M48 504v42q0 85 11 159.5t32 132t49.5 103t63.5 74.5t74 44.5t82 15.5q134 0 213 -138t79 -391v-103h-415q3 -73 19.5 -129t42.5 -89t58 -49.5t70 -16.5q48 0 86.5 16.5t98.5 55.5l16 -176q-63 -39 -113 -55.5t-113 -16.5q-73 0 -136.5 33.5t-112.5 97t-77 164.5t-28 226 zM235 594h237q0 148 -29 230t-83 82t-87.5 -78t-37.5 -234z" />
<glyph unicode="f" horiz-adv-x="446" d="M30 902v157h78v89q0 130 64.5 194t183.5 64q37 0 81 -7v-161q-23 4 -37 4q-102 0 -102 -120v-63h135v-157h-135v-902h-190v902h-78z" />
<glyph unicode="g" horiz-adv-x="758" d="M55 563v13q0 131 18.5 229.5t52 156.5t75.5 86.5t93 28.5q122 0 197 -169v151h190v-985q0 -336 -353 -336q-110 0 -229 36v177q17 -7 35.5 -13t37 -11t37 -9t36 -7t33.5 -4.5t29 -1.5q184 0 184 180v148q-76 -172 -197 -172q-51 0 -93 28.5t-75 86.5t-52 157t-19 230z M244 566q0 -158 33 -241.5t89 -83.5q55 0 92 85.5t37 238.5v7q0 153 -37 239.5t-92 86.5q-56 0 -89 -84.5t-33 -241.5v-6z" />
<glyph unicode="h" horiz-adv-x="748" d="M78 0v1403h188v-480q73 154 197 154q101 0 157.5 -79.5t56.5 -214.5v-783h-188v743q0 80 -28 122.5t-78 42.5q-52 0 -84.5 -45.5t-32.5 -123.5v-739h-188z" />
<glyph unicode="i" horiz-adv-x="353" d="M80 1196v207h195v-207h-195zM83 0v1059h190v-1059h-190z" />
<glyph unicode="j" horiz-adv-x="360" d="M-38 -103q12 -3 26 -3q53 0 77 29t24 87v1049h189v-1071q0 -123 -59.5 -187.5t-176.5 -64.5q-36 0 -80 10v151zM87 1196v207h193v-207h-193z" />
<glyph unicode="k" horiz-adv-x="690" d="M78 0v1403h188v-804l195 460h206l-198 -429l198 -630h-208l-129 445l-64 -139v-306h-188z" />
<glyph unicode="l" horiz-adv-x="353" d="M83 0v1403h190v-1403h-190z" />
<glyph unicode="m" horiz-adv-x="1151" d="M78 0v1059h188v-136q23 48 49 80.5t63.5 53t82.5 20.5q123 0 187 -139q84 139 203 139q97 0 161.5 -78t64.5 -218v-781h-189v743q0 80 -27 122.5t-76 42.5q-33 0 -58.5 -20t-40.5 -58.5t-15 -90.5v-739h-188v743q0 80 -27 122.5t-77 42.5t-81.5 -45.5t-31.5 -123.5v-739 h-188z" />
<glyph unicode="n" horiz-adv-x="748" d="M78 0v1059h188v-136q73 154 197 154q101 0 157.5 -79.5t56.5 -214.5v-783h-188v743q0 80 -28 122.5t-78 42.5q-52 0 -84.5 -45.5t-32.5 -123.5v-739h-188z" />
<glyph unicode="o" horiz-adv-x="740" d="M51 502v50q0 246 90 384.5t231 138.5q139 0 228.5 -138.5t89.5 -384.5v-50q0 -123 -24.5 -222.5t-68 -164t-101 -98.5t-124.5 -34q-141 0 -231 137t-90 382zM241 501q0 -168 35.5 -259t95.5 -91q58 0 93.5 91t35.5 259v55q0 112 -17 192t-45.5 119t-66.5 39 q-60 0 -95.5 -91t-35.5 -259v-55z" />
<glyph unicode="p" horiz-adv-x="758" d="M78 -258v1317h188v-155q76 173 197 173q51 0 93 -28.5t76 -87t52.5 -158.5t18.5 -235v-77q0 -133 -19 -233t-52.5 -159t-76 -87.5t-92.5 -28.5q-37 0 -68.5 14t-55.5 40t-40.5 52.5t-32.5 61.5v-409h-188zM264 497q0 -158 36.5 -247t93.5 -89q56 0 88 88t32 250v59 q0 163 -32 251.5t-88 88.5q-37 0 -66.5 -38t-46.5 -115t-17 -182v-66z" />
<glyph unicode="q" horiz-adv-x="758" d="M55 491v77q0 77 6.5 143.5t18 118t28.5 92.5t37.5 70t44.5 48t50.5 28t55.5 9q37 0 68 -14.5t55 -41t40 -53t32 -60.5v151h190v-1317h-190v411q-16 -34 -32 -60.5t-40 -53.5t-55 -41.5t-68 -14.5q-52 0 -94 28t-75.5 86.5t-52.5 158.5t-19 235zM244 499q0 -108 15 -184.5 t42 -115t65 -38.5q57 0 93 88.5t36 247.5v66q0 158 -36 246.5t-93 88.5t-89.5 -89t-32.5 -251v-59z" />
<glyph unicode="r" horiz-adv-x="485" d="M78 0v1059h188v-139q56 151 180 151h13v-225h-4q-90 0 -139.5 -60t-49.5 -178v-608h-188z" />
<glyph unicode="s" horiz-adv-x="559" d="M32 798v4q0 124 78.5 197.5t203.5 73.5q96 0 173 -30v-186q-87 45 -165 45q-48 0 -77 -25.5t-29 -67.5v-5q0 -26 11.5 -50.5t39.5 -57.5t87 -92q102 -97 141 -171.5t39 -164.5v-4q0 -127 -80.5 -204t-201.5 -77q-102 0 -214 49v188q121 -65 204 -65q47 0 77 28t30 73v4 q0 42 -27 85.5t-106 117.5q-97 95 -140.5 170.5t-43.5 164.5z" />
<glyph unicode="t" horiz-adv-x="472" d="M32 902v157h76v278h188v-278h137v-157h-137v-661q0 -45 19.5 -63.5t57.5 -18.5q33 0 60 12v-155q-53 -28 -117 -28q-45 0 -80.5 9t-65.5 29.5t-46 59.5t-16 94v722h-76z" />
<glyph unicode="u" horiz-adv-x="748" d="M72 275v784h188v-743q0 -80 28 -122.5t78 -42.5q52 0 84.5 45.5t32.5 123.5v739h188v-1059h-188v135q-73 -152 -197 -152q-101 0 -157.5 78.5t-56.5 213.5z" />
<glyph unicode="v" horiz-adv-x="711" d="M30 1059h188l140 -755l139 755h184l-230 -1063h-189z" />
<glyph unicode="w" horiz-adv-x="1048" d="M34 1059h192l108 -689l115 689h155l115 -689l107 689h190l-193 -1063h-184l-114 667l-116 -667h-183z" />
<glyph unicode="x" horiz-adv-x="694" d="M28 0l205 544l-197 515h195l118 -352l118 352h193l-197 -515l204 -544h-198l-124 377l-123 -377h-194z" />
<glyph unicode="y" horiz-adv-x="709" d="M32 1059h186l133 -708l142 708h184l-300 -1317h-182l65 288z" />
<glyph unicode="z" horiz-adv-x="575" d="M32 0v131l309 767h-295v161h498v-134l-309 -764h307v-161h-510z" />
<glyph unicode="{" horiz-adv-x="591" d="M44 497v151h32q84 0 131 46.5t47 118.5q0 63 -30.5 158.5t-30.5 152.5q0 62 20.5 114t61.5 92.5t107.5 64t153.5 25.5v-129q-75 -1 -125.5 -46t-50.5 -119q0 -52 16.5 -105t33.5 -105t17 -101q0 -98 -59.5 -163t-162.5 -80q104 -18 163 -82t59 -162q0 -49 -17 -100.5 t-33.5 -105t-16.5 -106.5q0 -74 50.5 -118t125.5 -45v-129q-172 4 -257.5 86t-85.5 216q0 37 9.5 77t21 70t21 73t9.5 84q0 74 -46.5 120.5t-131.5 46.5h-32z" />
<glyph unicode="|" horiz-adv-x="474" d="M163 -195v1721h149v-1721h-149z" />
<glyph unicode="}" horiz-adv-x="589" d="M55 -147q75 1 125.5 45.5t50.5 118.5q0 53 -17 106t-34 104.5t-17 100.5q0 97 60 163.5t162 80.5q-103 17 -162.5 82t-59.5 163q0 48 17 99.5t34 104.5t17 105q0 74 -51 119t-125 46v129q171 -4 258 -86t87 -216q0 -45 -15.5 -95.5t-31 -103t-15.5 -104.5q0 -49 19 -86 t59.5 -59t97.5 -22h32v-151h-32q-83 0 -129.5 -47t-46.5 -120q0 -63 31 -158t31 -153q0 -61 -21 -113t-62.5 -92.5t-108 -64t-153.5 -25.5v129z" />
<glyph unicode="~" horiz-adv-x="686" d="M81 529q13 98 56.5 148.5t95.5 50.5q26 0 49.5 -8t38.5 -18t35 -27q22 -17 30.5 -23t23.5 -12.5t29 -6.5q16 0 27.5 11.5t19 30.5t16.5 54l106 -30q-12 -97 -56 -147t-97 -50q-37 0 -63 12.5t-58 37.5q-30 23 -47.5 32.5t-38.5 9.5q-22 0 -35.5 -22t-25.5 -73z" />
<glyph unicode="&#xa1;" horiz-adv-x="422" d="M95 0v70l68 910h97l68 -910v-70h-233zM97 1148v243h229v-243h-229z" />
<glyph unicode="&#xa2;" horiz-adv-x="587" d="M55 673v50q0 103 17.5 189.5t49 148.5t74 103.5t94.5 61.5v173h139v-155q52 -3 98 -27v-192q-58 38 -110 38q-77 0 -123 -80.5t-46 -254.5v-61q0 -111 23 -186.5t61 -109t89 -33.5q46 0 108 39v-186q-60 -29 -100 -36v-167h-139v183q-108 39 -171.5 169t-63.5 333z" />
<glyph unicode="&#xa3;" horiz-adv-x="679" d="M49 0v125l98 44v415h-96v176h96v258q0 106 23.5 179.5t75.5 125.5q87 83 221 83q69 0 141 -19v-191q-56 19 -111 19q-64 0 -106 -41q-46 -46 -46 -155v-259h207v-176h-207v-407h305v-177h-601z" />
<glyph unicode="&#xa5;" horiz-adv-x="762" d="M16 1391h198l169 -608l169 608h193l-235 -731h146v-150h-179v-142h179v-150h-179v-218h-191v218h-178v150h178v142h-178v150h144z" />
<glyph unicode="&#xa7;" horiz-adv-x="781" d="M36 715v4q0 74 46 139.5t134 100.5q-41 43 -58 86.5t-17 97.5v4q0 59 21 107.5t59 81.5t90.5 51t115.5 18q108 0 185 -31v-186q-81 46 -175 46q-52 0 -81.5 -25.5t-29.5 -61.5v-4q0 -32 15.5 -54.5t58 -53.5t136.5 -85q34 -21 59.5 -38.5t50.5 -38.5t42.5 -42t31.5 -45 t20.5 -51.5t6.5 -57.5v-4q0 -73 -44.5 -136.5t-134.5 -99.5q76 -72 76 -177v-4q0 -123 -79.5 -196.5t-202.5 -73.5q-55 0 -115.5 13t-107.5 35v188q120 -63 212 -63q48 0 78 27.5t30 71.5v4q0 15 -5 29t-17 27.5t-23.5 24t-33.5 25t-38 23.5t-46 26t-48 28 q-105 60 -158.5 122t-53.5 148zM220 739q0 -17 4 -31.5t17 -33.5t35 -38.5t60 -44.5t91 -55q7 -3 19 -10.5t17 -9.5q100 60 100 140v4q0 22 -7.5 39.5t-28.5 41t-63 51.5t-108 65l-34 19q-102 -51 -102 -133v-4z" />
<glyph unicode="&#xa8;" horiz-adv-x="993" d="M280 1152v190h175v-190h-175zM538 1152v190h175v-190h-175z" />
<glyph unicode="&#xa9;" horiz-adv-x="1036" d="M48 662v67q0 151 34 278t95.5 216t149 138t192.5 49q140 0 247 -84.5t165 -239.5t58 -357v-67q0 -201 -58 -356t-165.5 -240t-247 -85t-246.5 85t-165.5 240t-58.5 356zM115 660q0 -180 48 -318.5t140 -217t216 -78.5t215.5 78.5t139.5 217t48 318.5v71q0 135 -28 248.5 t-79 195t-127 127t-169 45.5q-124 0 -216 -79t-140 -218t-48 -319v-71zM326 681v32q0 189 61.5 284t158.5 95q50 0 87 -19v-123q-48 28 -77 28q-111 0 -111 -263v-38q0 -75 8 -126.5t24 -80.5t35.5 -41t45.5 -12q32 0 77 26v-117q-45 -26 -97 -26q-95 0 -153.5 95.5 t-58.5 285.5z" />
<glyph unicode="&#xaa;" horiz-adv-x="496" d="M70 612v83h357v-83h-357zM78 974v15q0 92 35.5 138.5t98.5 46.5q38 0 82 -22v42q0 48 -23 73.5t-64 25.5q-42 0 -101 -27v105q56 26 120 26q86 0 132 -50t46 -145v-393h-112v65q-39 -76 -97 -76q-34 0 -60.5 21.5t-41.5 61.5t-15 93zM182 984q0 -90 53 -90q24 0 41.5 23 t17.5 59v97q-32 13 -53 13q-18 0 -31 -10t-20.5 -31t-7.5 -50v-11z" />
<glyph unicode="&#xab;" horiz-adv-x="853" d="M42 516v17l256 436l149 -87l-216 -355l220 -358l-153 -88zM398 516v17l256 436l148 -87l-216 -355l220 -358l-152 -88z" />
<glyph unicode="&#xad;" horiz-adv-x="627" d="M78 512v191h470v-191h-470z" />
<glyph unicode="&#xae;" horiz-adv-x="618" d="M57 1049v32q0 153 70 248t182.5 95t183 -95t70.5 -248v-32q0 -154 -70.5 -249t-183.5 -95q-74 0 -131 43t-89 121t-32 180zM103 1049q0 -88 24.5 -155.5t71.5 -106t110 -38.5q96 0 151.5 83t55.5 217v32q0 133 -55.5 217t-151 84t-151 -84t-55.5 -217v-32zM218 880v381 h78q57 0 89 -31t32 -87v-4q0 -73 -53 -104l61 -155h-65l-54 136h-28v-136h-60zM278 1071h18q17 0 30.5 7t21.5 23t8 38v2q0 63 -60 63h-18v-133z" />
<glyph unicode="&#xaf;" horiz-adv-x="993" d="M282 1154v131h429v-131h-429z" />
<glyph unicode="&#xb0;" horiz-adv-x="527" d="M49 1063v21q0 145 59.5 233t155.5 88q63 0 112 -39.5t76 -112.5t27 -169v-21q0 -96 -27 -169t-76 -112t-112 -39q-96 0 -155.5 87.5t-59.5 232.5zM178 1063q0 -97 23.5 -145t62.5 -48q19 0 35 11.5t27.5 34.5t18 60.5t6.5 86.5v21q0 50 -6.5 87t-18 59.5t-27 34 t-35.5 11.5q-19 0 -34.5 -11.5t-27 -34t-18 -59.5t-6.5 -87v-21z" />
<glyph unicode="&#xb1;" horiz-adv-x="730" d="M48 608v183h230v244h177v-244h229v-183h-229v-244h-177v244h-230zM51 57v174h630v-174h-630z" />
<glyph unicode="&#xb4;" horiz-adv-x="993" d="M332 1143l157 279l157 -83l-185 -196h-129z" />
<glyph unicode="&#xb6;" d="M32 927v5q0 117 33.5 206.5t93.5 144t139 81.5t174 27h132v-1391h-197v465q-77 5 -144 36.5t-119 87.5t-82 143t-30 195z" />
<glyph unicode="&#xb7;" horiz-adv-x="420" d="M95 487v242h231v-242h-231z" />
<glyph unicode="&#xb8;" horiz-adv-x="993" d="M322 -178l137 212h123l-93 -276z" />
<glyph unicode="&#xba;" horiz-adv-x="496" d="M72 1083v32q0 133 48 208.5t128 75.5q53 0 93 -33t62 -98t22 -153v-32q0 -134 -48 -209.5t-128.5 -75.5t-128.5 75.5t-48 209.5zM78 612v83h343v-83h-343zM182 1083q0 -187 66 -187t66 187v32q0 186 -66 186t-66 -186v-32z" />
<glyph unicode="&#xbb;" horiz-adv-x="853" d="M48 169l220 356l-217 357l148 87l256 -436v-17l-256 -435zM402 169l220 356l-217 357l149 87l257 -436v-17l-257 -435z" />
<glyph unicode="&#xbf;" horiz-adv-x="625" d="M36 338v16q0 253 240 367l24 259h127l20 -349l-10 -9q-208 -74 -208 -260v-4q0 -84 51 -135.5t129 -51.5q87 0 175 49v-178q-101 -52 -211 -52q-148 0 -242.5 98t-94.5 250zM244 1148v243h226v-243h-226z" />
<glyph unicode="&#xc0;" horiz-adv-x="798" d="M17 0l277 1395h208l277 -1395h-197l-55 309h-263l-55 -309h-192zM157 1621l169 83l157 -238h-142zM294 487h203l-101 558z" />
<glyph unicode="&#xc1;" horiz-adv-x="798" d="M17 0l277 1395h208l277 -1395h-197l-55 309h-263l-55 -309h-192zM294 487h203l-101 558zM318 1466l156 238l170 -83l-185 -155h-141z" />
<glyph unicode="&#xc2;" horiz-adv-x="798" d="M17 0l277 1395h208l277 -1395h-197l-55 309h-263l-55 -309h-192zM175 1466l145 223h159l145 -223h-139l-87 102l-89 -102h-134zM294 487h203l-101 558z" />
<glyph unicode="&#xc3;" horiz-adv-x="798" d="M17 0l277 1395h208l277 -1395h-197l-55 309h-263l-55 -309h-192zM153 1490q20 102 51.5 146.5t85.5 44.5q49 0 123 -42q59 -30 76 -30q19 0 30 16.5t23 59.5l116 -30q-20 -101 -52 -146t-85 -45q-19 0 -42 7t-35.5 12.5t-39.5 20.5q-63 33 -82 33q-13 0 -22.5 -8 t-16.5 -23.5t-15 -43.5zM294 487h203l-101 558z" />
<glyph unicode="&#xc4;" horiz-adv-x="798" d="M17 0l277 1395h208l277 -1395h-197l-55 309h-263l-55 -309h-192zM175 1476v187h179v-187h-179zM294 487h203l-101 558zM445 1476v187h179v-187h-179z" />
<glyph unicode="&#xc5;" horiz-adv-x="798" d="M17 0l265 1337q-49 46 -49 117q0 68 49 114.5t120 46.5q69 0 117.5 -46.5t48.5 -114.5q0 -70 -54 -121l267 -1333h-199l-55 309h-263l-55 -309h-192zM294 487h203l-101 558zM318 1454q0 -37 23 -61t59 -24q23 0 42 11t30 30.5t11 43.5q0 36 -24 59.5t-59 23.5 q-18 0 -33 -6t-26 -17t-17 -26.5t-6 -33.5z" />
<glyph unicode="&#xc6;" horiz-adv-x="1076" d="M2 0l373 1391h646v-185h-318v-414h284v-184h-284v-424h324v-184h-521v309h-235l-80 -309h-189zM312 487h194v705h-17z" />
<glyph unicode="&#xc7;" horiz-adv-x="663" d="M55 673v44q0 101 10.5 189t30 157t47.5 125t61.5 95.5t73.5 66t83 39t90 12.5q49 0 82 -7.5t71 -26.5v-203q-75 46 -135 46q-48 0 -85.5 -26.5t-67.5 -83t-46 -153t-16 -228.5v-48q0 -491 216 -491q66 0 138 44v-192q-59 -36 -141 -42l-78 -232l-167 64l119 182 q-131 44 -208.5 211.5t-77.5 457.5z" />
<glyph unicode="&#xc8;" horiz-adv-x="652" d="M83 0v1391h515v-185h-318v-414h285v-184h-285v-424h324v-184h-521zM101 1619l170 83l156 -238h-141z" />
<glyph unicode="&#xc9;" horiz-adv-x="652" d="M83 0v1391h515v-185h-318v-414h285v-184h-285v-424h324v-184h-521zM262 1464l157 238l169 -83l-184 -155h-142z" />
<glyph unicode="&#xca;" horiz-adv-x="652" d="M83 0v1391h515v-185h-318v-414h285v-184h-285v-424h324v-184h-521zM119 1466l145 223h159l145 -223h-139l-88 102l-87 -102h-135z" />
<glyph unicode="&#xcb;" horiz-adv-x="652" d="M83 0v1391h515v-185h-318v-414h285v-184h-285v-424h324v-184h-521zM119 1474v187h179v-187h-179zM389 1474v187h179v-187h-179z" />
<glyph unicode="&#xcc;" horiz-adv-x="377" d="M-53 1619l168 83l158 -238h-142zM91 0v1391h195v-1391h-195z" />
<glyph unicode="&#xcd;" horiz-adv-x="377" d="M91 0v1391h195v-1391h-195zM108 1464l156 238l169 -83l-185 -155h-140z" />
<glyph unicode="&#xce;" horiz-adv-x="377" d="M-36 1466l146 223h158l145 -223h-138l-88 102l-88 -102h-135zM91 0v1391h195v-1391h-195z" />
<glyph unicode="&#xcf;" horiz-adv-x="377" d="M-36 1474v187h179v-187h-179zM91 0v1391h195v-1391h-195zM235 1474v187h178v-187h-178z" />
<glyph unicode="&#xd0;" horiz-adv-x="836" d="M16 612v175h81v604h209q224 0 349.5 -172t125.5 -502v-44q0 -330 -125.5 -501.5t-349.5 -171.5h-209v612h-81zM294 178h32q55 0 100 27.5t81 84t55.5 154t19.5 229.5v44q0 131 -20 229t-56 154.5t-81.5 84t-100.5 27.5h-30v-425h127v-175h-127v-434z" />
<glyph unicode="&#xd1;" horiz-adv-x="845" d="M83 0v1391h188l301 -843v843h190v-1391h-176l-311 874v-874h-192zM177 1486q19 101 51.5 146t85.5 45q49 0 123 -42q59 -30 75 -30q19 0 31 17t23 59l115 -30q-20 -101 -52 -146t-85 -45q-19 0 -42 7t-35.5 13t-39.5 20q-63 34 -82 34t-30 -17t-23 -59z" />
<glyph unicode="&#xd2;" horiz-adv-x="825" d="M55 665v61q0 172 26.5 303.5t74 214t112.5 123.5t145 41q165 0 261.5 -171.5t96.5 -510.5v-61q0 -339 -96.5 -510.5t-261 -171.5t-261.5 171.5t-97 510.5zM171 1621l169 83l157 -238h-141zM254 665q0 -258 42.5 -381t116.5 -123t116.5 123t42.5 381v61q0 258 -42.5 381 t-116.5 123t-116.5 -123t-42.5 -381v-61z" />
<glyph unicode="&#xd3;" horiz-adv-x="825" d="M55 665v61q0 172 26.5 303.5t74 214t112.5 123.5t145 41q165 0 261.5 -171.5t96.5 -510.5v-61q0 -339 -96.5 -510.5t-261 -171.5t-261.5 171.5t-97 510.5zM254 665q0 -258 42.5 -381t116.5 -123t116.5 123t42.5 381v61q0 258 -42.5 381t-116.5 123t-116.5 -123 t-42.5 -381v-61zM330 1466l157 238l169 -83l-186 -155h-140z" />
<glyph unicode="&#xd4;" horiz-adv-x="825" d="M55 665v61q0 172 26.5 303.5t74 214t112.5 123.5t145 41q165 0 261.5 -171.5t96.5 -510.5v-61q0 -339 -96.5 -510.5t-261 -171.5t-261.5 171.5t-97 510.5zM189 1468l145 223h159l144 -223h-138l-88 101l-87 -101h-135zM254 665q0 -258 42.5 -381t116.5 -123t116.5 123 t42.5 381v61q0 258 -42.5 381t-116.5 123t-116.5 -123t-42.5 -381v-61z" />
<glyph unicode="&#xd5;" horiz-adv-x="825" d="M55 665v61q0 172 26.5 303.5t74 214t112.5 123.5t145 41q165 0 261.5 -171.5t96.5 -510.5v-61q0 -339 -96.5 -510.5t-261 -171.5t-261.5 171.5t-97 510.5zM167 1490q20 102 51.5 146.5t85.5 44.5q48 0 123 -42q58 -30 75 -30q20 0 31 16.5t23 59.5l115 -30 q-20 -101 -51.5 -146t-85.5 -45q-19 0 -42 7t-35.5 12.5t-39.5 20.5q-63 33 -81.5 33t-29.5 -16.5t-24 -58.5zM254 665q0 -258 42.5 -381t116.5 -123t116.5 123t42.5 381v61q0 258 -42.5 381t-116.5 123t-116.5 -123t-42.5 -381v-61z" />
<glyph unicode="&#xd6;" horiz-adv-x="825" d="M55 665v61q0 172 26.5 303.5t74 214t112.5 123.5t145 41q165 0 261.5 -171.5t96.5 -510.5v-61q0 -339 -96.5 -510.5t-261 -171.5t-261.5 171.5t-97 510.5zM189 1476v187h179v-187h-179zM254 665q0 -258 42.5 -381t116.5 -123t116.5 123t42.5 381v61q0 258 -42.5 381 t-116.5 123t-116.5 -123t-42.5 -381v-61zM459 1476v187h178v-187h-178z" />
<glyph unicode="&#xd7;" horiz-adv-x="730" d="M51 479l199 220l-199 221l140 111l175 -203l176 203l137 -111l-198 -221l198 -220l-139 -111l-174 202l-177 -202z" />
<glyph unicode="&#xd8;" horiz-adv-x="825" d="M55 665v61q0 172 26.5 303.5t74 214t112.5 123.5t145 41q121 0 201 -93l38 88h121l-83 -201q81 -177 81 -476v-61q0 -339 -96.5 -510.5t-261.5 -171.5q-110 0 -189 78l-31 -73h-121l74 179q-91 188 -91 498zM250 665q0 -110 14 -210l269 646q-40 133 -120 133 q-74 0 -118.5 -125.5t-44.5 -382.5v-61zM298 264q42 -107 115 -107q74 0 118.5 125.5t44.5 382.5v61q0 105 -13 174z" />
<glyph unicode="&#xd9;" horiz-adv-x="821" d="M80 391v1000h195v-1018q0 -105 36.5 -157.5t99.5 -52.5q32 0 57 12.5t43.5 38t28.5 66t10 93.5v1018h193v-1000q0 -200 -90 -304t-241.5 -104t-241.5 104t-90 304zM169 1617l169 83l157 -238h-141z" />
<glyph unicode="&#xda;" horiz-adv-x="821" d="M80 391v1000h195v-1018q0 -105 36.5 -157.5t99.5 -52.5q32 0 57 12.5t43.5 38t28.5 66t10 93.5v1018h193v-1000q0 -200 -90 -304t-241.5 -104t-241.5 104t-90 304zM330 1462l157 238l169 -83l-186 -155h-140z" />
<glyph unicode="&#xdb;" horiz-adv-x="821" d="M80 391v1000h195v-1018q0 -105 36.5 -157.5t99.5 -52.5q32 0 57 12.5t43.5 38t28.5 66t10 93.5v1018h193v-1000q0 -200 -90 -304t-241.5 -104t-241.5 104t-90 304zM189 1464l145 223h159l144 -223h-138l-88 102l-87 -102h-135z" />
<glyph unicode="&#xdc;" horiz-adv-x="821" d="M80 391v1000h195v-1018q0 -105 36.5 -157.5t99.5 -52.5q32 0 57 12.5t43.5 38t28.5 66t10 93.5v1018h193v-1000q0 -200 -90 -304t-241.5 -104t-241.5 104t-90 304zM189 1472v187h179v-187h-179zM459 1472v187h178v-187h-178z" />
<glyph unicode="&#xdd;" horiz-adv-x="740" d="M4 1391h205l163 -568l166 568h199l-268 -826v-565h-196v565zM290 1462l157 238l169 -83l-185 -155h-141z" />
<glyph unicode="&#xde;" horiz-adv-x="752" d="M83 0v1391h197v-207h26q65 0 125 -16.5t113 -52.5t92 -88.5t62 -129t23 -169.5v-5q0 -220 -112.5 -341t-304.5 -130h-24v-252h-197zM280 433h26q101 4 160 76t59 208v4q0 140 -57.5 211t-158.5 71h-29v-570z" />
<glyph unicode="&#xdf;" horiz-adv-x="776" d="M78 0v1005q0 184 84 292.5t236 108.5q91 0 159 -43.5t102.5 -115.5t34.5 -163v-13q0 -227 -173 -332q210 -90 210 -335v-15q0 -180 -93.5 -283.5t-269.5 -109.5v161q88 9 131 70t43 167v6q0 207 -174 248v139q142 72 142 264v10q0 57 -14.5 97.5t-41 61t-63.5 20.5 q-60 0 -92.5 -59t-32.5 -168v-1013h-188z" />
<glyph unicode="&#xe0;" d="M36 298v28q0 166 66 251.5t182 85.5q77 0 152 -39v83q0 91 -42 139t-121 48q-78 0 -184 -50v181q103 46 215 46q153 0 235.5 -90t82.5 -260v-721h-189v125q-64 -142 -183 -142q-94 0 -154 86.5t-60 228.5zM103 1339l157 83l159 -279h-129zM218 314q0 -85 27.5 -129 t74.5 -44q50 0 83 43t33 110v191q-61 27 -104 27q-55 0 -84.5 -44.5t-29.5 -129.5v-24z" />
<glyph unicode="&#xe1;" d="M36 298v28q0 166 66 251.5t182 85.5q77 0 152 -39v83q0 91 -42 139t-121 48q-78 0 -184 -50v181q103 46 215 46q153 0 235.5 -90t82.5 -260v-721h-189v125q-64 -142 -183 -142q-94 0 -154 86.5t-60 228.5zM218 314q0 -85 27.5 -129t74.5 -44q50 0 83 43t33 110v191 q-61 27 -104 27q-55 0 -84.5 -44.5t-29.5 -129.5v-24zM266 1143l157 279l157 -83l-184 -196h-130z" />
<glyph unicode="&#xe2;" d="M36 298v28q0 166 66 251.5t182 85.5q77 0 152 -39v83q0 91 -42 139t-121 48q-78 0 -184 -50v181q103 46 215 46q153 0 235.5 -90t82.5 -260v-721h-189v125q-64 -142 -183 -142q-94 0 -154 86.5t-60 228.5zM121 1147l150 265h142l150 -265h-130l-93 130l-94 -130h-125z M218 314q0 -85 27.5 -129t74.5 -44q50 0 83 43t33 110v191q-61 27 -104 27q-55 0 -84.5 -44.5t-29.5 -129.5v-24z" />
<glyph unicode="&#xe3;" d="M36 298v28q0 166 66 251.5t182 85.5q77 0 152 -39v83q0 91 -42 139t-121 48q-78 0 -184 -50v181q103 46 215 46q153 0 235.5 -90t82.5 -260v-721h-189v125q-64 -142 -183 -142q-94 0 -154 86.5t-60 228.5zM101 1166q20 104 50.5 148.5t83.5 44.5q45 0 116 -44 q52 -34 78 -34q15 0 24.5 9t16.5 25t15 48l109 -28q-14 -70 -31.5 -111.5t-42 -61t-59.5 -19.5q-19 0 -41 7t-36 14t-41 22q-50 33 -77 33q-21 0 -32 -17t-24 -61zM218 314q0 -85 27.5 -129t74.5 -44q50 0 83 43t33 110v191q-61 27 -104 27q-55 0 -84.5 -44.5t-29.5 -129.5 v-24z" />
<glyph unicode="&#xe4;" d="M36 298v28q0 166 66 251.5t182 85.5q77 0 152 -39v83q0 91 -42 139t-121 48q-78 0 -184 -50v181q103 46 215 46q153 0 235.5 -90t82.5 -260v-721h-189v125q-64 -142 -183 -142q-94 0 -154 86.5t-60 228.5zM125 1152v190h175v-190h-175zM218 314q0 -85 27.5 -129t74.5 -44 q50 0 83 43t33 110v191q-61 27 -104 27q-55 0 -84.5 -44.5t-29.5 -129.5v-24zM383 1152v190h175v-190h-175z" />
<glyph unicode="&#xe5;" d="M36 298v28q0 166 66 251.5t182 85.5q77 0 152 -39v83q0 91 -42 139t-121 48q-78 0 -184 -50v181q103 46 215 46q153 0 235.5 -90t82.5 -260v-721h-189v125q-64 -142 -183 -142q-94 0 -154 86.5t-60 228.5zM173 1308q0 73 49 122.5t119.5 49.5t119.5 -49.5t49 -122.5 t-49.5 -123.5t-119.5 -50.5q-46 0 -84.5 22.5t-61 62.5t-22.5 89zM218 314q0 -85 27.5 -129t74.5 -44q50 0 83 43t33 110v191q-61 27 -104 27q-55 0 -84.5 -44.5t-29.5 -129.5v-24zM258 1308q0 -27 11 -48.5t30 -34t42 -12.5q36 0 60 27.5t24 67.5t-24 67.5t-59.5 27.5 t-59.5 -27.5t-24 -67.5z" />
<glyph unicode="&#xe6;" horiz-adv-x="1073" d="M36 298v28q0 166 66 251.5t182 85.5q77 0 152 -39v83q0 91 -42 139t-121 48q-78 0 -184 -50v181q103 46 215 46q166 0 238 -135q74 139 197 139q135 0 214.5 -138t79.5 -391v-103h-417q8 -144 60.5 -214t129.5 -70q49 0 88.5 17t96.5 55l16 -176q-63 -39 -112 -55.5 t-112 -16.5q-92 0 -165 53.5t-116 156.5q-28 -93 -88.5 -151.5t-142.5 -58.5q-109 0 -172 85.5t-63 229.5zM218 314q0 -84 28.5 -128.5t79.5 -44.5q45 0 84 48.5t59 126.5q-12 60 -16 165q-64 31 -121 31q-55 0 -84.5 -44.5t-29.5 -129.5v-24zM616 594h239q0 148 -30.5 230 t-85.5 82q-54 0 -87 -78.5t-36 -233.5z" />
<glyph unicode="&#xe7;" horiz-adv-x="565" d="M51 502v50q0 85 12 159t33.5 130.5t51.5 101t67 73t78.5 43t87.5 14.5q48 0 78.5 -6.5t63.5 -23.5v-195q-70 42 -121 42q-33 0 -60.5 -18.5t-50.5 -57.5t-36 -105t-13 -153v-57q0 -88 13 -153.5t36 -104.5t52 -57.5t64 -18.5q52 0 116 47v-188q-60 -34 -121 -40l-76 -226 l-167 64l116 178q-104 42 -164 169t-60 333z" />
<glyph unicode="&#xe8;" d="M48 504v42q0 85 11 159.5t32 132t49.5 103t63.5 74.5t74 44.5t82 15.5q134 0 213 -138t79 -391v-103h-415q3 -73 19.5 -129t42.5 -89t58 -49.5t70 -16.5q48 0 86.5 16.5t98.5 55.5l16 -176q-63 -39 -113 -55.5t-113 -16.5q-73 0 -136.5 33.5t-112.5 97t-77 164.5t-28 226 zM117 1339l158 83l158 -279h-129zM235 594h237q0 148 -29 230t-83 82t-87.5 -78t-37.5 -234z" />
<glyph unicode="&#xe9;" d="M48 504v42q0 85 11 159.5t32 132t49.5 103t63.5 74.5t74 44.5t82 15.5q134 0 213 -138t79 -391v-103h-415q3 -73 19.5 -129t42.5 -89t58 -49.5t70 -16.5q48 0 86.5 16.5t98.5 55.5l16 -176q-63 -39 -113 -55.5t-113 -16.5q-73 0 -136.5 33.5t-112.5 97t-77 164.5t-28 226 zM235 594h237q0 148 -29 230t-83 82t-87.5 -78t-37.5 -234zM282 1143l157 279l157 -83l-185 -196h-129z" />
<glyph unicode="&#xea;" d="M48 504v42q0 85 11 159.5t32 132t49.5 103t63.5 74.5t74 44.5t82 15.5q134 0 213 -138t79 -391v-103h-415q3 -73 19.5 -129t42.5 -89t58 -49.5t70 -16.5q48 0 86.5 16.5t98.5 55.5l16 -176q-63 -39 -113 -55.5t-113 -16.5q-73 0 -136.5 33.5t-112.5 97t-77 164.5t-28 226 zM137 1143l149 265h143l149 -265h-129l-93 131l-94 -131h-125zM235 594h237q0 148 -29 230t-83 82t-87.5 -78t-37.5 -234z" />
<glyph unicode="&#xeb;" d="M48 504v42q0 85 11 159.5t32 132t49.5 103t63.5 74.5t74 44.5t82 15.5q134 0 213 -138t79 -391v-103h-415q3 -73 19.5 -129t42.5 -89t58 -49.5t70 -16.5q48 0 86.5 16.5t98.5 55.5l16 -176q-63 -39 -113 -55.5t-113 -16.5q-73 0 -136.5 33.5t-112.5 97t-77 164.5t-28 226 zM141 1152v190h175v-190h-175zM235 594h237q0 148 -29 230t-83 82t-87.5 -78t-37.5 -234zM400 1152v190h174v-190h-174z" />
<glyph unicode="&#xec;" horiz-adv-x="353" d="M-61 1339l156 83l159 -279h-129zM83 0v1059h190v-1059h-190z" />
<glyph unicode="&#xed;" horiz-adv-x="353" d="M83 0v1059h190v-1059h-190zM101 1143l157 279l157 -83l-184 -196h-130z" />
<glyph unicode="&#xee;" horiz-adv-x="353" d="M-42 1147l150 265h142l150 -265h-129l-94 130l-94 -130h-125zM83 0v1059h190v-1059h-190z" />
<glyph unicode="&#xef;" horiz-adv-x="353" d="M-38 1152v190h175v-190h-175zM83 0v1059h190v-1059h-190zM220 1152v190h176v-190h-176z" />
<glyph unicode="&#xf0;" horiz-adv-x="738" d="M51 501v57q0 94 15.5 176.5t41 141.5t59.5 102t71.5 64t76 21t69.5 -18t67 -58q-32 93 -87 187l-140 -59l-49 117l117 51q-42 60 -93 120h210l38 -52l127 55l52 -119l-107 -45q169 -295 169 -652v-48q0 -141 -25 -250t-69.5 -175.5t-102.5 -100t-127 -33.5 q-137 0 -225 139t-88 379zM241 502q0 -111 16 -191t44.5 -121t66.5 -41q59 0 94 92.5t35 260.5v54q0 171 -36.5 262.5t-94.5 91.5q-55 0 -90 -94t-35 -260v-54z" />
<glyph unicode="&#xf1;" horiz-adv-x="748" d="M78 0v1059h188v-136q73 154 197 154q101 0 157.5 -79.5t56.5 -214.5v-783h-188v743q0 80 -28 122.5t-78 42.5q-52 0 -84.5 -45.5t-32.5 -123.5v-739h-188zM137 1166q19 104 50 148.5t84 44.5q44 0 116 -44q52 -34 78 -34q21 0 32.5 17.5t23.5 64.5l109 -28 q-20 -103 -50.5 -147.5t-82.5 -44.5q-19 0 -41 7t-36 14t-41 22q-50 33 -77 33q-21 0 -32.5 -17t-23.5 -61z" />
<glyph unicode="&#xf2;" horiz-adv-x="740" d="M51 502v50q0 246 90 384.5t231 138.5q139 0 228.5 -138.5t89.5 -384.5v-50q0 -123 -24.5 -222.5t-68 -164t-101 -98.5t-124.5 -34q-141 0 -231 137t-90 382zM133 1339l157 83l159 -279h-129zM241 501q0 -168 35.5 -259t95.5 -91q58 0 93.5 91t35.5 259v55q0 112 -17 192 t-45.5 119t-66.5 39q-60 0 -95.5 -91t-35.5 -259v-55z" />
<glyph unicode="&#xf3;" horiz-adv-x="740" d="M51 502v50q0 246 90 384.5t231 138.5q139 0 228.5 -138.5t89.5 -384.5v-50q0 -123 -24.5 -222.5t-68 -164t-101 -98.5t-124.5 -34q-141 0 -231 137t-90 382zM241 501q0 -168 35.5 -259t95.5 -91q58 0 93.5 91t35.5 259v55q0 112 -17 192t-45.5 119t-66.5 39 q-60 0 -95.5 -91t-35.5 -259v-55zM296 1143l157 279l157 -83l-185 -196h-129z" />
<glyph unicode="&#xf4;" horiz-adv-x="740" d="M51 502v50q0 246 90 384.5t231 138.5q139 0 228.5 -138.5t89.5 -384.5v-50q0 -123 -24.5 -222.5t-68 -164t-101 -98.5t-124.5 -34q-141 0 -231 137t-90 382zM151 1143l149 265h143l149 -265h-129l-93 131l-94 -131h-125zM241 501q0 -168 35.5 -259t95.5 -91q58 0 93.5 91 t35.5 259v55q0 112 -17 192t-45.5 119t-66.5 39q-60 0 -95.5 -91t-35.5 -259v-55z" />
<glyph unicode="&#xf5;" horiz-adv-x="740" d="M51 502v50q0 246 90 384.5t231 138.5q139 0 228.5 -138.5t89.5 -384.5v-50q0 -123 -24.5 -222.5t-68 -164t-101 -98.5t-124.5 -34q-141 0 -231 137t-90 382zM131 1166q20 104 50.5 148.5t82.5 44.5q46 0 117 -44q52 -34 78 -34q21 0 32 17.5t23 64.5l110 -28 q-20 -103 -50.5 -147.5t-82.5 -44.5q-19 0 -41 7t-36 14t-41 22q-50 33 -77 33q-21 0 -32 -17t-23 -61zM241 501q0 -168 35.5 -259t95.5 -91q58 0 93.5 91t35.5 259v55q0 112 -17 192t-45.5 119t-66.5 39q-60 0 -95.5 -91t-35.5 -259v-55z" />
<glyph unicode="&#xf6;" horiz-adv-x="740" d="M51 502v50q0 246 90 384.5t231 138.5q139 0 228.5 -138.5t89.5 -384.5v-50q0 -123 -24.5 -222.5t-68 -164t-101 -98.5t-124.5 -34q-141 0 -231 137t-90 382zM155 1152v190h175v-190h-175zM241 501q0 -168 35.5 -259t95.5 -91q58 0 93.5 91t35.5 259v55q0 112 -17 192 t-45.5 119t-66.5 39q-60 0 -95.5 -91t-35.5 -259v-55zM413 1152v190h175v-190h-175z" />
<glyph unicode="&#xf7;" horiz-adv-x="730" d="M51 610v179h630v-179h-630zM271 294v203h190v-203h-190zM271 902v203h190v-203h-190z" />
<glyph unicode="&#xf8;" horiz-adv-x="740" d="M38 -16l83 167q-70 137 -70 351v50q0 246 90 384.5t231 138.5q98 0 172 -74l36 72h121l-83 -163q72 -138 72 -358v-50q0 -123 -24.5 -222.5t-68 -164t-101 -98.5t-124.5 -34q-103 0 -179 72l-36 -71h-119zM231 501q0 -68 11 -116l225 445q-38 78 -95 78q-63 0 -102 -92.5 t-39 -259.5v-55zM273 231q39 -84 99 -84q61 0 100.5 93.5t39.5 260.5v55q0 60 -13 123z" />
<glyph unicode="&#xf9;" horiz-adv-x="748" d="M72 275v784h188v-743q0 -80 28 -122.5t78 -42.5q52 0 84.5 45.5t32.5 123.5v739h188v-1059h-188v135q-73 -152 -197 -152q-101 0 -157.5 78.5t-56.5 213.5zM133 1337l157 83l159 -279h-129z" />
<glyph unicode="&#xfa;" horiz-adv-x="748" d="M72 275v784h188v-743q0 -80 28 -122.5t78 -42.5q52 0 84.5 45.5t32.5 123.5v739h188v-1059h-188v135q-73 -152 -197 -152q-101 0 -157.5 78.5t-56.5 213.5zM296 1141l157 279l157 -83l-185 -196h-129z" />
<glyph unicode="&#xfb;" horiz-adv-x="748" d="M72 275v784h188v-743q0 -80 28 -122.5t78 -42.5q52 0 84.5 45.5t32.5 123.5v739h188v-1059h-188v135q-73 -152 -197 -152q-101 0 -157.5 78.5t-56.5 213.5zM151 1145l149 265h143l149 -265h-129l-93 131l-94 -131h-125z" />
<glyph unicode="&#xfc;" horiz-adv-x="748" d="M72 275v784h188v-743q0 -80 28 -122.5t78 -42.5q52 0 84.5 45.5t32.5 123.5v739h188v-1059h-188v135q-73 -152 -197 -152q-101 0 -157.5 78.5t-56.5 213.5zM155 1150v191h175v-191h-175zM413 1150v191h175v-191h-175z" />
<glyph unicode="&#xfd;" horiz-adv-x="709" d="M32 1059h186l133 -708l142 708h184l-300 -1317h-182l65 288zM280 1141l157 279l157 -83l-185 -196h-129z" />
<glyph unicode="&#xfe;" horiz-adv-x="758" d="M78 -258v1661h188v-497q77 171 197 171q51 0 93 -28.5t76 -87t52.5 -158.5t18.5 -235v-77q0 -133 -19 -233t-52.5 -159t-76 -87.5t-92.5 -28.5q-37 0 -68.5 14t-55.5 40t-40.5 52.5t-32.5 61.5v-409h-188zM264 497q0 -158 36.5 -247t93.5 -89q56 0 88 88.5t32 249.5v62 q0 161 -32 249t-88 88q-37 0 -66.5 -38t-46.5 -115t-17 -182v-66z" />
<glyph unicode="&#xff;" horiz-adv-x="709" d="M32 1059h186l133 -708l142 708h184l-300 -1317h-182l65 288zM139 1150v191h175v-191h-175zM398 1150v191h174v-191h-174z" />
<glyph unicode="&#x152;" horiz-adv-x="1105" d="M55 673v44q0 330 125 502t351 172h520v-185h-318v-414h285v-184h-285v-424h324v-184h-526q-226 0 -351 171.5t-125 501.5zM254 673q0 -131 20 -229t56 -154.5t81.5 -84t100.5 -27.5h24v1034h-26q-55 0 -100 -27.5t-81 -84t-55.5 -154t-19.5 -229.5v-44z" />
<glyph unicode="&#x153;" horiz-adv-x="1160" d="M51 502v50q0 246 90 384.5t231 138.5q73 0 132.5 -44.5t97.5 -130.5q38 87 95.5 131t126.5 44q136 0 215 -138t79 -391v-103h-417q9 -143 61.5 -213.5t129.5 -70.5q34 0 65 9t56 23t64 40l15 -176q-31 -19 -56.5 -32t-52.5 -22.5t-54.5 -13.5t-60.5 -4q-83 0 -151 46 t-109 134q-38 -89 -99.5 -134.5t-136.5 -45.5q-141 0 -231 137t-90 382zM241 501q0 -168 35.5 -259t95.5 -91q58 0 93.5 91t35.5 259v55q0 112 -17 192t-45.5 119t-66.5 39q-60 0 -95.5 -91t-35.5 -259v-55zM701 594h239q0 98 -13.5 168t-39.5 107t-63 37q-54 0 -87 -78.5 t-36 -233.5z" />
<glyph unicode="&#x178;" horiz-adv-x="740" d="M4 1391h205l163 -568l166 568h199l-268 -826v-565h-196v565zM147 1472v187h179v-187h-179zM417 1472v187h179v-187h-179z" />
<glyph unicode="&#x2c6;" horiz-adv-x="993" d="M276 1147l149 265h143l149 -265h-129l-93 130l-93 -130h-126z" />
<glyph unicode="&#x2dc;" horiz-adv-x="993" d="M250 1166q14 70 31.5 112t42 61.5t59.5 19.5q46 0 118 -44q51 -34 77 -34q15 0 24.5 9t16 25t14.5 48l110 -28q-13 -70 -30.5 -111.5t-42.5 -61t-60 -19.5q-18 0 -40.5 7t-36.5 14t-40 22q-50 33 -78 33q-20 0 -31.5 -17t-23.5 -61z" />
<glyph unicode="&#x2000;" horiz-adv-x="852" />
<glyph unicode="&#x2001;" horiz-adv-x="1704" />
<glyph unicode="&#x2002;" horiz-adv-x="852" />
<glyph unicode="&#x2003;" horiz-adv-x="1704" />
<glyph unicode="&#x2004;" horiz-adv-x="568" />
<glyph unicode="&#x2005;" horiz-adv-x="426" />
<glyph unicode="&#x2006;" horiz-adv-x="284" />
<glyph unicode="&#x2007;" horiz-adv-x="284" />
<glyph unicode="&#x2008;" horiz-adv-x="213" />
<glyph unicode="&#x2009;" horiz-adv-x="340" />
<glyph unicode="&#x200a;" horiz-adv-x="94" />
<glyph unicode="&#x2010;" horiz-adv-x="627" d="M78 512v191h470v-191h-470z" />
<glyph unicode="&#x2011;" horiz-adv-x="627" d="M78 512v191h470v-191h-470z" />
<glyph unicode="&#x2012;" horiz-adv-x="627" d="M78 512v191h470v-191h-470z" />
<glyph unicode="&#x2013;" horiz-adv-x="872" d="M78 514v187h714v-187h-714z" />
<glyph unicode="&#x2014;" horiz-adv-x="1280" d="M78 514v187h1126v-187h-1126z" />
<glyph unicode="&#x2018;" horiz-adv-x="400" d="M81 864v203q0 278 253 328l20 -82q-45 -12 -76.5 -34t-47 -50t-21 -57.5t-2.5 -62.5h102v-245h-228z" />
<glyph unicode="&#x2019;" horiz-adv-x="400" d="M48 946q37 9 65 25t44.5 36t26.5 43.5t11.5 48t-0.5 49.5h-102v243h229v-201q0 -277 -252 -328z" />
<glyph unicode="&#x201a;" horiz-adv-x="436" d="M51 -203q50 13 84.5 34.5t52 49t23.5 57t3 62.5h-101v242h228v-200q0 -140 -65.5 -221.5t-203.5 -106.5z" />
<glyph unicode="&#x201c;" horiz-adv-x="742" d="M81 864v203q0 278 253 328l20 -82q-45 -12 -76.5 -34t-47 -50t-21 -57.5t-2.5 -62.5h102v-245h-228zM423 864v203q0 278 252 328l20 -82q-45 -12 -76.5 -34t-47 -50t-21 -57.5t-2.5 -62.5h104v-245h-229z" />
<glyph unicode="&#x201d;" horiz-adv-x="742" d="M48 946q37 9 65 25t44.5 36t26.5 43.5t11.5 48t-0.5 49.5h-102v243h229v-201q0 -277 -252 -328zM389 946q46 11 78 32.5t47.5 49.5t20.5 57.5t1 62.5h-100v243h227v-201q0 -277 -252 -328z" />
<glyph unicode="&#x201e;" horiz-adv-x="792" d="M51 -203q50 13 84.5 34.5t52 49t23.5 57t3 62.5h-101v242h228v-200q0 -140 -65.5 -221.5t-203.5 -106.5zM407 -203q50 13 84.5 34.5t52 49t23.5 57t3 62.5h-101v242h228v-200q0 -140 -65.5 -221.5t-204.5 -106.5z" />
<glyph unicode="&#x2022;" horiz-adv-x="673" d="M133 688v31q0 84 26.5 143.5t71.5 88.5t105 29q91 0 146.5 -68t55.5 -193v-31q0 -126 -55.5 -193.5t-147 -67.5t-147 67.5t-55.5 193.5z" />
<glyph unicode="&#x2026;" horiz-adv-x="1300" d="M95 0v244h231v-244h-231zM534 0v244h230v-244h-230zM976 0v244h230v-244h-230z" />
<glyph unicode="&#x202f;" horiz-adv-x="340" />
<glyph unicode="&#x2039;" horiz-adv-x="506" d="M51 516v17l255 436l149 -87l-216 -355l220 -358l-153 -88z" />
<glyph unicode="&#x203a;" horiz-adv-x="506" d="M48 169l220 358l-217 355l148 87l256 -436v-17l-256 -435z" />
<glyph unicode="&#x205f;" horiz-adv-x="426" />
<glyph unicode="&#x20ac;" horiz-adv-x="740" d="M28 465v147h109q0 10 -1 30t-1 29v48q0 11 1 34.5t1 35.5h-109v145h121q17 120 54 211.5t88 148t112 84.5t130 28q49 0 82 -6.5t69 -25.5v-204q-75 45 -136 45q-74 0 -126.5 -68.5t-74.5 -212.5h235v-145h-246q0 -11 -1 -34.5t-1 -35.5v-48q0 -11 1 -30.5t1 -28.5h246 v-147h-237q41 -290 207 -290q67 0 138 45v-194q-39 -23 -79.5 -32.5t-94.5 -9.5q-140 0 -238 120.5t-129 360.5h-121z" />
<glyph unicode="&#x2122;" horiz-adv-x="830" d="M24 1287v104h276v-104h-86v-523h-106v523h-84zM368 764v627h117l78 -239l79 239h115v-627h-103v420l-89 -270h-4l-89 270v-420h-104z" />
<glyph unicode="&#xe000;" horiz-adv-x="1062" d="M0 0v1063h1063v-1063h-1063z" />
</font>
</defs>
</svg>
